<?xml version="1.0" encoding="utf-8"?>
<!-- Generator: Adobe Illustrator 15.1.0, SVG Export Plug-In . SVG Version: 6.00 Build 0)  -->
<!DOCTYPE svg PUBLIC "-//W3C//DTD SVG 1.1//EN" "http://www.w3.org/Graphics/SVG/1.1/DTD/svg11.dtd">
<svg version="1.1" id="svg2211" xmlns:svg="http://www.w3.org/2000/svg"
	 xmlns="http://www.w3.org/2000/svg" xmlns:xlink="http://www.w3.org/1999/xlink" x="0px" y="0px" width="230px" height="203px"
	 viewBox="0 0 230 203" enable-background="new 0 0 230 203" xml:space="preserve">
<g id="layer3">
</g>
<path id="path2548" fill="none" stroke="#B3B3B3" d="M79.25,131.5h110.5"/>
<path id="path2550" fill="none" stroke="#0000FF" stroke-width="1.8" d="M93.56,179l37.19-47.5 M130.75,25.25L93.56,67.5"/>
<path id="path2546" fill="none" stroke="#999999" d="M79.25,25.25V131.5L39,179"/>
<path id="path2538" fill="none" stroke="#000000" stroke-width="2" d="M155,179H39l0.5-0.5L39,67.5l40.25-42.25h110.5V131.5L155,179
	z"/>
<path id="path2540" fill="none" stroke="#000000" stroke-width="2" d="M39,67.5h116l34.75-42.25"/>
<path id="path2544" fill="none" stroke="#000000" stroke-width="2" d="M155,67.5V179"/>
<path id="path2552" fill="none" stroke="#0000FF" stroke-width="1.8" d="M114.5,42.768v109.59"/>
<path id="path3405" fill="#00FF00" stroke="#00FF00" stroke-width="1.2" stroke-linecap="round" stroke-linejoin="round" d="
	M116.891,42.771c0,1.32-1.07,2.391-2.391,2.391c-1.32,0-2.39-1.07-2.391-2.39c0-1.32,1.07-2.39,2.391-2.391
	c1.312,0,2.379,1.058,2.391,2.37"/>
<path id="path3407" fill="#00FF00" stroke="#00FF00" stroke-width="1.2" stroke-linecap="round" stroke-linejoin="round" d="
	M116.891,152.641c0,1.32-1.07,2.391-2.391,2.391c-1.32,0-2.39-1.07-2.391-2.391c0-1.32,1.07-2.391,2.391-2.391
	c1.312,0,2.379,1.058,2.391,2.369"/>
<path id="path2516" fill="#0000FF" stroke="#0000FF" stroke-width="1.2" stroke-linecap="round" stroke-linejoin="round" d="
	M134.06,131.529c0.001,1.827-1.481,3.309-3.31,3.31c-1.828,0-3.31-1.481-3.31-3.31c-0.001-1.828,1.481-3.311,3.31-3.311
	c1.816,0,3.294,1.465,3.31,3.281"/>
<path id="path2512" fill="#0000FF" stroke="#0000FF" stroke-width="1.2" stroke-linecap="round" stroke-linejoin="round" d="
	M193.06,131.5c0.001,1.828-1.481,3.311-3.31,3.311s-3.31-1.482-3.31-3.311c-0.001-1.828,1.481-3.31,3.31-3.31
	c1.816,0,3.294,1.464,3.31,3.28"/>
<path id="path2502" fill="#0000FF" stroke="#0000FF" stroke-width="1.2" stroke-linecap="round" stroke-linejoin="round" d="
	M158.31,179c0.001,1.828-1.481,3.311-3.31,3.311s-3.31-1.482-3.31-3.311c-0.001-1.828,1.481-3.31,3.31-3.31
	c1.816,0,3.294,1.464,3.31,3.28"/>
<path id="path2508" fill="#0000FF" stroke="#0000FF" stroke-width="1.2" stroke-linecap="round" stroke-linejoin="round" d="
	M96.87,179.057c0,1.828-1.481,3.311-3.31,3.311c-1.828,0-3.31-1.481-3.31-3.31c0-1.827,1.482-3.31,3.31-3.31
	c1.817,0,3.294,1.464,3.31,3.281"/>
<path id="path2498" fill="#0000FF" stroke="#0000FF" stroke-width="1.2" stroke-linecap="round" stroke-linejoin="round" d="
	M42.31,179.029c0,1.827-1.481,3.309-3.31,3.31c-1.828,0-3.31-1.481-3.31-3.31c0-1.828,1.481-3.311,3.31-3.311
	c1.816,0,3.294,1.465,3.31,3.281"/>
<path id="path2496" fill="#0000FF" stroke="#0000FF" stroke-width="1.2" stroke-linecap="round" stroke-linejoin="round" d="
	M42.31,67.5c0,1.828-1.481,3.31-3.31,3.31c-1.828,0-3.31-1.481-3.31-3.31c0-1.828,1.481-3.31,3.31-3.31
	c1.816,0,3.294,1.464,3.31,3.281"/>
<path id="path2506" fill="#0000FF" stroke="#0000FF" stroke-width="1.2" stroke-linecap="round" stroke-linejoin="round" d="
	M96.87,67.529c0,1.828-1.481,3.31-3.31,3.31c-1.828,0-3.31-1.482-3.31-3.31c0-1.828,1.482-3.31,3.31-3.31
	c1.817,0,3.294,1.464,3.31,3.281"/>
<path id="path2514" fill="#0000FF" stroke="#0000FF" stroke-width="1.2" stroke-linecap="round" stroke-linejoin="round" d="
	M134.06,25.25c0.001,1.828-1.481,3.31-3.31,3.31s-3.31-1.481-3.31-3.31c-0.001-1.828,1.481-3.31,3.31-3.31
	c1.816,0,3.294,1.464,3.31,3.281"/>
<path id="path2510" fill="#0000FF" stroke="#0000FF" stroke-width="1.2" stroke-linecap="round" stroke-linejoin="round" d="
	M193.06,25.279c0.001,1.828-1.481,3.31-3.31,3.31c-1.828,0-3.31-1.482-3.31-3.31c-0.001-1.828,1.481-3.31,3.31-3.31
	c1.816,0,3.294,1.464,3.31,3.281"/>
<path id="path2500" fill="#0000FF" stroke="#0000FF" stroke-width="1.2" stroke-linecap="round" stroke-linejoin="round" d="
	M158.31,67.471c0.001,1.828-1.481,3.31-3.31,3.31s-3.31-1.481-3.31-3.31c-0.001-1.828,1.481-3.31,3.31-3.31
	c1.816,0,3.294,1.464,3.31,3.281"/>
<path id="path3409" fill="#FF0000" stroke="#FF0000" stroke-width="1.2" stroke-linecap="round" stroke-linejoin="round" d="
	M117.994,106.298c0,1.93-1.564,3.493-3.494,3.493s-3.494-1.563-3.494-3.493s1.564-3.493,3.494-3.493
	c1.918,0,3.477,1.545,3.494,3.463"/>
</svg>
